<?xml version="1.0" encoding="UTF-8"?>
<svg id="Layer_1" data-name="Layer 1" xmlns="http://www.w3.org/2000/svg" viewBox="-0.42 -53.07 773.17 773.17">
  <g id="_0s7tix.tif" data-name="0s7tix.tif">
    <g>
      <path d="M444.7,0c14.95,2.74,28.73,8.77,40.2,19.15,3.39,3.07,6.34,5.86,8.89,9.56l2.4,3.49c5.65,8.2,9.63,17.65,11.12,27.42l.8,5.23c.14.93.2,1.48.19,2.6l-.04,83.21c0,.82-1.06,6.82-1.38,8.01l-2.43,9.06c.29-1.1-3.64,8.63-3.29,7.93-3.03,6.04-6.56,11.64-10.97,16.81-1.59,1.86-7.35,7.7-9.02,8.71l-3.37,2.05c-4.18,2.55-7.14,3.56-11.67,4.13,2.22.34,4.25.58,6.24,1.14l3.63,1.02c2.15,1.42,5.38,2.46,8.23,4.05,6.13,3.41,11.09,8.1,15.49,13.56,3.86,4.79,5.91,10.37,7.72,16.28.36,1.18.82,2.93.82,4.38v138.23c0,1.2-.28,2.87-.5,3.83l-1.41,6.24c-.17.73-.37,2.13-.62,2.73l-1.64,3.83c-1.54,3.58-3.6,6.94-5.71,10.21-.58.9-1.59,1.49-1.17,2.51-.25.03-1.32.41-1.55.76-2.79,4.25-7.81,8.24-11.39,10.88-.28.2-.45,1.11-.63,1.06-.12-.03-.44-.08-.66-.11-4.19,2.94-8.74,5.03-13.46,7.05-.48.2-.69.51-1.53.51.02-.02-.34.34-.49.48-.63.06-1.54.19-2.34.4l-4.44,1.15c-2,.52-4.08.89-6.22,1.31s-4.58.47-6.87.73l-7.63.85-143.53.02V0s148.22,0,148.22,0ZM436.92,136.02l.07-36.64-.39-14.36-.74-7.07c-.16-1.5-.08-2.87-.28-4.29l-.76-5.52c-.88-6.39-2.89-13.8-6.65-18.66-3.25-4.2-7.36-5.38-12.48-6.57-1.45.17-2.91-.33-4.32-.33l-43.73-.04v145.54c0,.56-.21,1.17.07,1.18l3.76.19,39.96.03c1.64,0,3.44-.63,5.09-.79,7.73-.73,14.14-6.46,15.55-14.12.5-.9.94-1.94,1.35-3.18l1.49-7.39c.39-1.93.43-3.79.61-5.72l.32-3.31.68-6.83.4-12.1ZM437.11,351.95v-69.36s-.47-7.27-.47-7.27c-.3-4.66-.28-9.07-.66-13.82l-.44-5.48c-.12-1.52-.4-2.93-.67-4.38-.86-4.7-1.78-9.19-4.06-13.4-1.32-2.44-2.48-4.64-4.86-6.32-3.18-2.86-7.33-3.69-11.76-4.53h-46.56s0,176.43,0,176.43h46.15s4.1-.74,4.1-.74c7.38-1.26,12.3-6.68,14.57-13.63l1.25-3.83c.62-1.91.76-4.14,1.19-6.13.38-1.76.8-3.32.2-5.27-.03,0,.37-.09.71-.18.04-1.21-.07-3.01.13-4.31,1.47-9.65-.03-9.53,1.17-17.81Z"/>
      <path d="M629.99,0v380.1c0,1.2.29,2.96.55,3.8l2.09,6.84c.76,2.49,2.39,4.8,3.83,7.02,5.21,8.03,15.52,14.07,25.09,14.83,2.91.23,5.99.33,8.93-.01,10.97-1.29,20.97-8.25,26.48-18.02,2.41-4.27,4.6-11.83,4.6-17l.04-77.21c0-.31.25-.86.36-.81l.68.29,36.42-.04,31.15.04c1.11-.35,2.23-.31,2.98.43l-.05,140.2-214.64.03v-2.61c.01-1.23.32-2.86.21-4.08-.33-3.67-.18-6.94-.05-10.56.12-3.14-.65-6.27.08-9.35l-.09-12.09-.03-10.58-.05-10.09v-10.51c0-3.32-.12-6.42.11-9.73.19-2.76-.5-5.64-.17-8.35.2-1.65.17-3.04.17-4.61v-7.7s-.09-12.51-.09-12.51l-.02-9.38v-10.9s.03-9.74.03-9.74l.06-11.33-.03-10.53-.05-10.53v-10.14s.01-10.89.01-10.89v-9.38s.07-10.88.07-10.88l-.05-11.36-.06-10.11v-10.92s.03-10.13.03-10.13l.04-10.93.04-10.94-.02-7.46c0-1.68.16-3.19-.1-4.89-.42-2.73.11-5.54.09-8.28l-.07-10.54.02-9.37.06-10.87-.05-11.36-.04-10.52v-10.51c0-3.32-.11-6.42.11-9.73.19-2.76-.5-5.64-.17-8.35.2-1.65.17-3.04.17-4.6l-.03-7.7.08-12.09c-.7-3.24-.03-6.52-.11-9.78-.09-3.59-.14-6.93,0-10.55.11-2.87-.48-5.78-.07-8.62.22-1.54.27-3,.26-4.4h71.17Z"/>
      <path d="M243.82,0v369.95c0,1.48-.52,2.85-.65,4.04l-.55,5.04c-.13,1.16-.38,2.33-.66,3.41l-1.22,4.78c-.74,2.92-1.37,5.83-2.62,8.59-1.36,3-2.81,5.92-4.47,8.89s-6.2,9.35-8.47,11.63l-5.91,5.95c-.64.65-1.67,1.44-2.6,2.11l-6.66,4.87c-.09.07-.02.92.09.95-2.34-.57-2.71.8-3.57,1.25l-3.53,1.87c-2.26,1.2-4.73,2.34-7.11,3.3-2.07.83-10.64,3.93-11.97,4.27l-6.97,1.74-5.99,1.2-6.26,1.08c-1.7.29-3.33.6-5.11.72l-4.66.3-3.8.35-27.31-.02c-1.45,0-3.18-.27-4.65-.42l-5.43-.55-3.39-.66c-1.62-.32-3.14-.48-4.59-.81l-4.95-1.13c-4.34-.99-11.61-3.42-15.82-5.11l-5.51-2.21c-.78-.31-1.92-1.12-2.89-1.61-8.04-4.1-15.5-9.26-21.81-15.64l-2.74-2.76-3.83-4.15c-.65-.7-1.34-1.58-1.91-2.33l-3.75-4.91c-.26-.34-.72-1.01-.94-1.37l-2.93-4.93c-.29-.49-.7-1.38-1.03-2.12l-2.69-5.96-.81-2.68c-2.19-7.27-4.37-14.36-4.36-21.98l.04-65.52c1.04.19,1.98.41,3.04.41l66.36-.03c.42,0,1.26-.51,1.38-.23.09.21.42.96.42,1.26l.02,80.09c0,1.76,1.76,7.81,2.37,9.46,3.82,10.45,12.67,17.97,23.26,21.49,11.11,3.69,23.93.94,32.57-6.63,4.83-4.23,8.83-9.06,10.78-15.18.65-2.02,1.55-3.96,2.01-6.23,1.29-6.28-.38-4.22,1-6.68V0h70.75Z"/>
      <path d="M130.97,0c-1.18,4.07-2.99,5.13-3.55,9.79-.02.2-.77.53-.86.75-.59,1.4-1.65,3.81-2.44,5.39-.41.83-.56,1.82-.68,2.54-.43.77-.98,2.14-1.28,2.97-1.26,1.76-2.11,4.22-3,6.47l-1.43,3.61-2.51,5.82-4.14,9.32c-.35.78-.57,1.63-.66,2.4l-.75.5c-.17.11.08.87-.04,1.04-.51.77-1.33,2.28-1.81,3.39l-1.92,4.46c-.06.14.09.89.14,1.03.06.19-.6.13-.75.17l.39,1.17c.07.22-.52.08-1.08.07l-.54,2.83c-1.06.97-1.76,2.83-1.55,4.34-.18.09-.94.26-.9.47l.25,1.3-1-.24c-.21-.05-.11.95-.19,1.15l-2.35,5.72c-.23.55-.37,1.35-.42,1.89-.67.59-1.29,1.7-1.34,2.52-.15.25-.44.74-.65,1.19l-2.55,5.51c-.38.82-.46,1.49-.62,2.76.4.94.22.52-.23-.55-.2.74-.39,1.57-.59,2.03l-2.62,5.88-3.55,8.59-2.09,4.65-2.35,5.69-1.07,2.59c-.77,1.86-1.48,3.78-2.39,5.66l-1.51,3.14c-.79,1.64-1.36,3.48-2.12,5.3-.53,1.26-3.11,5.38-2.36,6.52-.72.5-1.52,1.63-1.25,2.57l-.53.28c-.12.07.14.72.03.81l-.7.61c-.2.18-.08.91-.13,1.2-.52.78-1.38,2.08-1.73,3l-1.91,4.97-2.42-5.24c-.06-.13-.81-.64-.89-.52-.12.18.56-.64.69-.79l-1.88-3.81c-2.04-4.14-.41-2.46-1.93-3.82-.15-.13.04-.85-.05-1.05l-2.4-5.66c-.12-.28-.92-.66-.95-.93l-.1-.96-1.38-3.32-1.08-2.61c-.43-1.03-.87-2.2-1.6-2.88-.02-.35-.11-1.25-.27-1.62l-2.27-5.17c-.08-.17-.72-.49-.86-.6s.25-.96.12-1.26l-5.63-12.88-1.8-4.29-1.35-2.86-2.4-5.93-1.84-4.54c-.27-.68-.83-1.52-1.22-2.01-.23-1.42-.88-2.79-1.65-4.19-.69-1.25-1.04-3.05-1.62-4.35l-1.44-3.25-3.73-8.45-1.16-2.62-2.41-5.5-1.36-3.26-5.34-12.5-1.52-3.56-1.16-2.86-1.12-2.84-1.56-3.99c-.3-.77-.92-1.64-1.44-2.12l.2-1.66-1.04.32c-.19.06.16-.85.07-1.08l-1.91-4.92L.93,1.86C.81,1.56,0,1.15,0,1.26V0h130.97Z"/>
      <path d="M772.75,468.77v198.21s-738.9.06-738.9.06c-.59,0-1-.03-1-.21v-1.16s-.05-198.22-.05-198.22l729.67-.02h1s8.48,0,8.48,0c.26,0,.79.06.79.23v1.11ZM769.42,511.44c-.07-5.08-3.75-8.71-8.26-8.74s-8.23,3.72-8.4,8.5c-.18,5.08,3.35,9.16,8.38,9.14,4.51-.02,8.36-3.82,8.28-8.9ZM80.7,607.72c2.53-1.32,3.85-4.19,3.85-6.92l-.02-25.51c0-5.54-1.46-10.66-3.58-15.68l-6.38-15.08c-1.81-4.27-2.93-8.81-2.93-13.51l-.02-17.3c0-1.5.36-3.35.75-4.73.55-1.95,2.67-2.4,4.28-2.12,2.91.49,3.18,4.35,3.19,7.38l.05,21.84,4.16.08-.15-23.13c-.03-4.96-3.6-7.56-8.1-7.53s-8.18,2.41-8.31,7.34c-.19,6.95-.22,13.98,0,21.08.12,3.85,1.13,7.69,2.6,11.16l6.52,15.38c2.08,4.91,3.54,9.99,3.57,15.4l.15,23.8c.03,3.95-.42,7.72-4.36,7.93-.95.05-2.7-.5-3.16-1.53-.63-1.42-1.09-3.26-1.1-4.81l-.07-24.72-4.12-.08.08,24.97c.01,3.31,2.13,6.28,5.32,7.01,2.51.57,5.33.56,7.77-.72ZM576.98,608.66c3.83-.39,6.79-3.31,6.79-7.35v-26.92c-.01-5.06-1.42-9.87-3.35-14.45l-6.47-15.34c-1.64-3.88-2.89-8.03-2.88-12.32l.09-21.34c.01-2.46,1.83-4.18,3.9-4.21s3.9,1.64,3.91,4.14l.08,25.22h4.31s-.07-23.16-.07-23.16c0-2.09-1.09-4.48-2.33-5.54-1.8-1.53-3.86-1.79-6.12-1.84-4.32-.1-7.79,2.51-7.93,7.08-.23,7.35-.3,14.67.03,22.11.18,4.13,1.56,8.14,3.14,11.87l6.51,15.38c2.06,4.86,3.01,9.93,3.03,15.25l.08,22.73c0,1.3-.24,2.87-.43,4.12-.37,2.51-2.36,3.68-4.65,3.43-1.8-.2-3.41-2.08-3.42-4.39l-.12-26.61-4.28-.04.05,24.39c0,2.22,1.03,4.81,2.63,6.16,2.12,1.78,4.89,1.88,7.5,1.62ZM736.1,601.12l-.08-27.89c-.04-12.39-12.72-28.49-12.74-41.56l-.04-17.49c0-2.91.36-7.1,3.52-7.38,1.52-.14,3.46.41,3.95,2.17.4,1.43.73,3.24.73,4.74v22.36s4.27.02,4.27.02l-.09-22.94c-.02-4.99-3.77-7.68-8.34-7.67s-8.08,2.55-8.11,7.53l-.11,18.75c-.03,4.47.74,8.78,2.5,12.91l6.55,15.37c2.66,6.25,3.88,12.55,3.83,19.41l-.18,23.82c-.02,2.66-2.16,4.32-4.27,4.34s-3.92-1.72-3.93-4.26l-.08-26.86-4.28.02.03,24.83c0,2.32,1.16,4.96,3.14,6.14,3,1.79,6.88,1.77,9.97.18,2.24-1.15,3.78-3.77,3.77-6.54ZM170.1,506.27l-2.37-.04c-1.62,17.74-2.98,35.07-6.42,52.91-2.97-17.94-4.57-35.1-6.12-52.83-1.34-.1-2.54-.11-4.23-.02,1.75,20.68,4.17,40.8,7.3,61.33v40.4s4.28.03,4.28.03v-41.69c3.46-20.09,5.85-39.9,7.55-60.09ZM253.61,607.51v-101.23s-3.82-.07-3.82-.07l-.47,56.41-9.2-56.36-3.88-.02v101.77s4.01.11,4.01.11l.2-80.46,9.01,55.15.45,25.16c1.06.24,2.86.42,3.7-.46ZM330.19,607.81v-99.52s6.54-.22,6.54-.22l.06-1.92-17.02.06c-.45.04-.6,1.96-.15,1.86l6.32.2v99.73c1.53.16,2.76.17,4.25-.19ZM419.85,607.82v-101.59s-4.24,0-4.24,0v47.05s-8.8.08-8.8.08v-47.17s-4.32.07-4.32.07v101.72s4.31.07,4.31.07v-52.61s8.81.05,8.81.05v52.47c1.53.21,2.81.23,4.25-.13ZM499,555.43v-2.07s-7.88-.09-7.88-.09v-44.94s8.72-.08,8.72-.08l-.02-2.09-13.02.02v101.91s13.41.03,13.41.03l.05-2.12-9.15-.08v-50.46s7.89-.02,7.89-.02ZM653.71,607.54v-101.28s-4.36-.03-4.36-.03v101.72c1.63.25,3.23.45,4.36-.4ZM586.76,660.68l-.02-22.73-4.35-.03v9.33s-13.31-.03-13.31-.03l-.05-9.29-4.33.02v22.78s4.32.02,4.32.02l.1-10.11h13.25s.04,10.14.04,10.14l4.35-.11ZM611.12,655.34l2.46,5.46,4.85-.15-11.31-22.65c-1.79-.12-3.78-.11-5.47.08l-11.51,22.54,4.64.13,2.67-5.54,13.67.12ZM638.48,660.78l4.36-.09-1.64-7.85c-.34-1.62-1.57-2.73-3.4-3.48,2.81-1.22,4.47-3.3,4.2-6.04-.8-8.13-13.1-4.67-20.15-5.42v22.8s4.33.06,4.33.06l.05-9.69,7.11-.02c4.52-.01,3.74,5.97,5.14,9.73ZM674.96,660.75l4.01-.04v-22.79s-6.81.04-6.81.04l-8.72,19.12-8.73-19.13-7.05-.03v22.78c1.42.1,2.82.08,3.89-.18l.21-19.12,9.03,19.34h4.88s9.05-19.35,9.05-19.35l.23,19.37ZM703.25,655.28l2.57,5.52,4.84-.16-11.4-22.77-5.29.08-11.6,22.68,4.66.16,2.55-5.5h13.67ZM736.6,660.71v-22.73s-3.86-.03-3.86-.03l-.24,18.53-12.48-18.54h-5.92s0,22.76,0,22.76l3.87.05.14-18.56,12.49,18.58,6-.05ZM542.22,652.29c-2.28-1.82-5.05-1.15-7.16.31l-.18-4.51c-.02-.5-1.61-.57-2.17-.34v12.6c.95-.02,1.99-.33,2.71-.62,2.16,1.41,5.31,1.5,7.08-.43,1.64-1.78,1.94-5.23-.29-7.01ZM556.31,651.62c-1.04-.2-2.24-.15-2.45.3l-3.03,6.44-3.49-6.83h-2.54s4.72,8.89,4.72,8.89l-1.7,3.34,2.48-.13,6.01-12Z"/>
      <path d="M81.33,249.88l-5.07,1.47c-3.55,1.03-12.78,1.28-17.12.53-10.53-1.81-19.38-7.35-26.11-15.39-5.3-6.33-7.39-13.44-8.62-21.41-1.1-7.11.6-15.34,3.48-21.73,1.11-2.47,2.35-5.15,4.07-7.3l2.4-3c6.78-8.48,19.21-14.48,30.11-14.93,9.66-.4,21.28,3.25,28.31,9.83l.92-.03c.26,0,.34,1.05.7,1.36,4.49,3.97,8.7,10.08,10.95,16,2.79,7.35,2.76,13.06,2.36,21.16-.1,1.96-2.58,10.34-3.1,11.24l-2.59,4.45c-4.44,7.62-11.68,13.69-19.41,16.95-.38.16-.97.71-1.26.8Z"/>
      <path d="M634.19,647.83l-7.97.16v-7.03s7.87.11,7.87.11c2,.03,3.38,1.46,3.49,3,.15,2-.98,3.7-3.39,3.75Z"/>
      <polygon points="609.41 652.14 599.01 652.21 604.2 641.26 609.41 652.14"/>
      <polygon points="701.64 652.14 691.23 652.21 696.42 641.26 701.64 652.14"/>
      <path d="M535.88,658.28c-1.2-1.43-1.08-3.62.13-4.79,1.28-1.23,3.58-1.12,4.66.22.97,1.2,1.16,3.18,0,4.6-.97,1.18-3.43,1.58-4.78-.03Z"/>
      <path d="M768.26,511.42c.07,4.45-3.07,7.71-7.1,7.82s-7.34-3.37-7.38-7.58c-.04-4.21,3.01-7.69,7.03-7.83s7.38,3.16,7.45,7.6ZM764.06,516.48c1.08.9.77-2.98-.37-4.52.47-.81,1.14-2.14,1.16-2.98.06-3.13-5.15-2.37-7.27-2.4l.04,9.58c.41.25,1.63.15,1.64-.24l.11-3.23c1.04-.04,2.13.03,2.97.29,1.23.38.4,2.4,1.72,3.51Z"/>
      <path d="M762.9,508.38c.57.39.35,2.12-.12,2.57-.59.56-1.92.69-3.37.58l-.1-3.79c1.01-.22,2.49-.13,3.6.63Z"/>
    </g>
  </g>
</svg>