<?xml version="1.0" encoding="UTF-8"?>
<svg xmlns="http://www.w3.org/2000/svg" viewBox="15 348 265 265">
  <defs>
    <style>
      .cls-1 {
        fill: #030000;
        stroke-width: 0px;
      }
    </style>
  </defs>
  <path class="cls-1" d="M154.81,480.95h-7.27v29.52h7.27c4.75,0,4.75-3.19,4.75-14.66s0-14.86-4.75-14.86Z"/>
  <path class="cls-1" d="M154.14,450.17h-6.6v24.6h6.6c4.38,0,5.48-.73,5.48-12.2s-1.17-12.4-5.48-12.4Z"/>
  <path class="cls-1" d="M41.12,392.59v174.91h212.71v-174.91H41.12ZM107.23,443.25l-11.12,25.3-11.11-25.3h22.24ZM95.97,471.25c3.84,0,6.95,3.11,6.95,6.95s-3.11,6.95-6.95,6.95-6.95-3.11-6.95-6.95h0c0-3.84,3.11-6.95,6.95-6.95ZM126.4,503.73c0,7.27-4.75,13.84-18.24,13.84s-18.2-8.56-18.2-13.84v-10.55h12.02v12.71c-.02,3.42,2.74,6.2,6.16,6.22.01,0,.02,0,.03,0,3.43-.05,6.19-2.84,6.19-6.27v-62.57h12.02l.03,60.48ZM171.73,467.67c0,3.64-3.17,10.12-7.92,10.12,4.1-.02,7.54,3.1,7.92,7.18v21.93c0,3.75-2.93,9.59-12.02,9.59h-24.04v-73.29h24.04c6.59.1,11.91,5.4,12.02,11.99v12.49ZM216.75,516.49h-36.44v-73.29h11.93v62.71c0,3.42,2.77,6.19,6.19,6.19s6.19-2.77,6.19-6.19v-12.71h12.02l.12,23.29Z"/>
</svg>