<?xml version="1.0" encoding="UTF-8"?>
<svg id="Layer_1" data-name="Layer 1" xmlns="http://www.w3.org/2000/svg" viewBox="0 0 960 960">
  <defs>
    <style>
      .cls-1 {
        fill: #030000;
        stroke-width: 0px;
      }
    </style>
  </defs>
  <path class="cls-1" d="M900.39,433.54c-.04,2.34.88,4.6,2.55,6.24,3.43,3.43,9,3.43,12.43,0,1.7-1.63,2.65-3.89,2.63-6.24,0-4.86-3.94-8.8-8.8-8.8s-8.8,3.94-8.8,8.8h-.02ZM914.52,428.21c2.93,2.98,2.93,7.75,0,10.73-2.98,2.94-7.77,2.9-10.71-.07-2.94-2.98-2.9-7.77.07-10.71,1.41-1.39,3.3-2.17,5.27-2.18,2.02-.02,3.95.79,5.36,2.23h0Z"/>
  <path class="cls-1" d="M907.28,438.36v-3.78h1.38c.65-.04,1.3.07,1.91.32.68.51,1.03,1.35.91,2.19v1.06h1.58c-.02-.17-.02-.33,0-.5-.01-.23-.01-.47,0-.71v-.69c-.01-.54-.2-1.06-.53-1.49-.37-.56-.98-.91-1.64-.94.5-.07.98-.24,1.41-.5.64-.42,1-1.15.94-1.91.08-1.05-.52-2.03-1.49-2.43-.86-.28-1.77-.39-2.67-.35h-3.37v9.64l1.58.09ZM907.28,433.37v-3.46h1.49c.7-.04,1.4.08,2.05.35.47.29.72.83.64,1.38.05.66-.35,1.27-.97,1.49-.52.16-1.07.23-1.61.21l-1.61.04Z"/>
  <path class="cls-1" d="M340.41,522.67v-23.19c-.22-7.62-2.23-15.08-5.86-21.78l-1.06-2.37-1.91-4.38c-3.2-5.77-4.89-12.25-4.92-18.84v-14.83c0-6.27.97-7.27,3.28-7.27s3.26,1.03,3.26,7.27v22.25h6.55v-22.66c.2-5.42-4.03-9.97-9.45-10.17s-9.97,4.03-10.17,9.45c0,.24,0,.48,0,.72v16.55c.17,7.11,2.06,14.07,5.51,20.29.76,1.67,1.52,3.34,2.32,5.19l.38.85c3.6,6.82,5.46,14.42,5.42,22.13v20.52c0,6.24-1.17,7.3-3.69,7.3s-3.28-1.03-3.28-7.3v-24.32h-6.38v24.71c-.73,4.89,2.64,9.45,7.53,10.18.75.11,1.51.13,2.26.05,5.07.58,9.64-3.07,10.22-8.13.08-.74.08-1.48-.02-2.21h0Z"/>
  <path class="cls-1" d="M400.16,457.58l-.97-8.79c-.73-6.69-1.41-12.49-1.96-20.52v-.94h-6.54v1.09c.71,8.79,1.41,14.98,2.32,22.63l.88,7.71c1.41,11.73,2.46,18.84,4.38,31.31v42.16h6.54v-42.13l.97-5.86c1.44-8.79,2.63-15.83,3.84-26.12,1.47-11.55,2.26-18.24,3.19-29.67v-1.09h-4.55v.91c-.76,8.94-1.41,15.04-2.26,22.75l-.67,6.33c-.59,5.26-1.26,9.47-1.96,13.92-.26,1.61-.53,3.26-.79,4.99-.18-1.44-.41-2.93-.59-4.19-.6-4.62-1.24-8.99-1.83-14.48Z"/>
  <path class="cls-1" d="M468.93,427.33h-6v104.9h6.24v-73.06l7.92,46.53v26.53h6.24v-104.9h-6.24v50.04l-8.06-49.19-.1-.85Z"/>
  <path class="cls-1" d="M550.44,427.33h-19.41v4.02h6.95v100.88h6.51v-100.88h6.92v-4.02h-.96Z"/>
  <path class="cls-1" d="M607.4,428.33v-1h-6.51v104.9h6.51v-53.24h7.39v53.24h6.48v-104.9h-6.48v47.52h-7.39v-46.53Z"/>
  <path class="cls-1" d="M687.89,431.46v-4.13h-15.64v104.9h16.15v-4.13h-9.59v-49.11h8.24v-4.02h-8.24v-43.51h9.07Z"/>
  <path class="cls-1" d="M758.82,522.67v-23.19c-.18-7.6-2.13-15.04-5.7-21.75l-1.06-2.41-1.91-4.31c-3.21-5.79-4.9-12.29-4.92-18.91v-14.83c0-6.27.94-7.27,3.26-7.27s3.28,1.09,3.28,7.27v22.25h6.48v-22.66c.2-5.4-4.02-9.94-9.42-10.14-5.4-.2-9.94,4.02-10.14,9.42,0,.24,0,.48,0,.72v16.55c.16,7.13,2.04,14.12,5.48,20.37.76,1.61,1.52,3.28,2.29,5.1l.44.94c3.54,6.8,5.35,14.38,5.26,22.05v20.52c0,6.24-1.14,7.3-3.69,7.3s-3.28-1.03-3.28-7.3v-24.32h-6.48v24.71c-.73,4.89,2.64,9.45,7.53,10.18.75.11,1.51.13,2.26.05,5.06.64,9.68-2.94,10.32-8,.1-.78.1-1.57,0-2.34h0Z"/>
  <path class="cls-1" d="M814.82,427.36h-6.69v104.87h6.69v-104.87Z"/>
  <path class="cls-1" d="M873.59,426.69c-4.91-.54-9.32,3.01-9.86,7.92-.08.75-.07,1.51.04,2.26v16.55c.17,7.06,2.05,13.97,5.45,20.15.76,1.67,1.56,3.4,2.37,5.31l.41.94c3.59,6.79,5.44,14.37,5.39,22.05v20.52c0,6.24-1.11,7.3-3.66,7.3s-3.31-1.06-3.31-7.3v-24.31h-6.51v24.71c-.72,4.9,2.67,9.46,7.57,10.18.75.11,1.5.13,2.25.05,5.05.57,9.61-3.06,10.18-8.1.08-.71.08-1.42,0-2.13v-23.31c-.17-7.59-2.11-15.04-5.66-21.75l-1.03-2.41-1.91-4.31c-3.21-5.79-4.9-12.29-4.92-18.91v-14.83c0-6.27.97-7.27,3.26-7.27,1.64,0,2.19.53,2.58,1.35.62,1.89.86,3.88.71,5.86v22.31h6.54v-22.66c.67-4.93-2.78-9.47-7.71-10.14-.72-.1-1.45-.11-2.18-.03Z"/>
  <path class="cls-1" d="M154.81,480.95h-7.27v29.52h7.27c4.75,0,4.75-3.19,4.75-14.66s0-14.86-4.75-14.86Z"/>
  <path class="cls-1" d="M154.14,450.17h-6.6v24.6h6.6c4.38,0,5.48-.73,5.48-12.2s-1.17-12.4-5.48-12.4Z"/>
  <path class="cls-1" d="M41.12,392.59v174.91h212.71v-174.91H41.12ZM107.23,443.25l-11.12,25.3-11.11-25.3h22.24ZM95.97,471.25c3.84,0,6.95,3.11,6.95,6.95s-3.11,6.95-6.95,6.95-6.95-3.11-6.95-6.95h0c0-3.84,3.11-6.95,6.95-6.95ZM126.4,503.73c0,7.27-4.75,13.84-18.24,13.84s-18.2-8.56-18.2-13.84v-10.55h12.02v12.71c-.02,3.42,2.74,6.2,6.16,6.22.01,0,.02,0,.03,0,3.43-.05,6.19-2.84,6.19-6.27v-62.57h12.02l.03,60.48ZM171.73,467.67c0,3.64-3.17,10.12-7.92,10.12,4.1-.02,7.54,3.1,7.92,7.18v21.93c0,3.75-2.93,9.59-12.02,9.59h-24.04v-73.29h24.04c6.59.1,11.91,5.4,12.02,11.99v12.49ZM216.75,516.49h-36.44v-73.29h11.93v62.71c0,3.42,2.77,6.19,6.19,6.19s6.19-2.77,6.19-6.19v-12.71h12.02l.12,23.29Z"/>
</svg>