<svg xmlns="http://www.w3.org/2000/svg" viewBox="0 0 64 64" fill="none" stroke="#000000" stroke-width="1.5" stroke-linecap="round" stroke-linejoin="round">
  <rect x="4" y="16" width="56" height="32" rx="2" />
  <line x1="38" y1="16" x2="38" y2="14.5" />
  <line x1="41" y1="16" x2="41" y2="14.5" />
  <line x1="44" y1="16" x2="44" y2="14.5" />
  <line x1="47" y1="16" x2="47" y2="14.5" />
  <line x1="50" y1="16" x2="50" y2="14.5" />
  <line x1="53" y1="16" x2="53" y2="14.5" />
  <rect x="7" y="20" width="18" height="24" rx="1" stroke-width="1.2" />
  <line x1="10" y1="26" x2="22" y2="26" stroke-width="1" />
  <line x1="10" y1="30" x2="19" y2="30" stroke-width="1" />
  <line x1="10" y1="34" x2="16" y2="34" stroke-width="1" />
  <circle cx="30" cy="25" r="1.5" />
  <circle cx="36" cy="25" r="1.5" />
  <circle cx="42" cy="25" r="1.5" />
  <circle cx="30" cy="33" r="1.5" />
  <circle cx="36" cy="33" r="1.5" />
  <circle cx="42" cy="33" r="1.5" />
  <circle cx="53" cy="32" r="7" stroke-width="1.5" />
  <circle cx="53" cy="32" r="1" fill="#000000" stroke="none" />
  <circle cx="53" cy="43" r="1.8" />
</svg>